<?xml version="1.0" standalone="no"?>
<!DOCTYPE svg PUBLIC "-//W3C//DTD SVG 20010904//EN"
 "http://www.w3.org/TR/2001/REC-SVG-20010904/DTD/svg10.dtd">
<svg version="1.0" xmlns="http://www.w3.org/2000/svg"
 width="330.000000pt" height="330.000000pt" viewBox="0 0 330.000000 330.000000"
 preserveAspectRatio="xMidYMid meet">
<metadata>
Created by potrace 1.14, written by Peter Selinger 2001-2017
</metadata>
<g transform="translate(0.000000,330.000000) scale(0.100000,-0.100000)"
fill="#000000" stroke="none">
<path d="M1520 3289 c-120 -13 -230 -35 -340 -71 -98 -31 -262 -104 -268 -119
-2 -5 -7 -9 -12 -9 -13 0 -113 -63 -131 -82 -9 -10 -21 -18 -28 -18 -6 0 -11
-4 -11 -10 0 -5 -12 -10 -26 -10 -18 0 -41 -15 -75 -50 -27 -27 -54 -50 -60
-50 -10 0 -48 -39 -149 -150 -45 -50 -60 -70 -60 -80 0 -6 -4 -10 -10 -10 -5
0 -10 -6 -10 -14 0 -8 -4 -16 -8 -18 -11 -4 -102 -154 -102 -168 0 -5 -4 -10
-10 -10 -5 0 -10 -9 -10 -20 0 -11 -4 -20 -10 -20 -5 0 -10 -7 -10 -15 0 -15
-3 -23 -33 -81 -29 -56 -66 -178 -99 -329 -13 -56 -16 -569 -4 -625 21 -102
61 -249 81 -295 7 -16 22 -51 34 -77 11 -26 21 -55 21 -63 0 -8 3 -15 8 -15 4
0 12 -10 17 -23 17 -36 59 -111 70 -124 6 -7 16 -19 23 -27 6 -8 12 -19 12
-23 0 -4 10 -20 23 -34 12 -15 33 -42 47 -60 42 -57 161 -173 246 -242 186
-148 436 -264 688 -319 87 -19 132 -22 321 -23 192 0 233 3 326 23 383 82 695
268 950 568 38 45 115 159 131 194 7 16 16 30 20 30 5 0 8 9 8 20 0 11 4 20 8
20 17 0 122 257 122 297 0 12 5 25 10 28 6 3 10 22 10 41 0 19 5 34 10 34 6 0
10 24 10 54 0 30 5 56 11 58 15 5 15 488 0 516 -6 11 -11 39 -11 61 0 23 -4
41 -10 41 -5 0 -10 18 -10 39 0 22 -4 43 -10 46 -5 3 -10 15 -10 26 0 25 -44
157 -70 212 -11 22 -20 47 -20 54 0 7 -4 13 -10 13 -5 0 -10 9 -10 20 0 11 -4
20 -10 20 -5 0 -10 9 -10 20 0 11 -4 20 -10 20 -5 0 -10 7 -10 15 0 8 -4 15
-10 15 -5 0 -10 7 -10 15 0 8 -3 15 -7 15 -5 0 -16 17 -26 39 -10 21 -28 49
-40 63 -12 14 -33 40 -47 58 -14 18 -41 50 -60 70 -19 21 -51 56 -70 79 -19
22 -40 41 -45 41 -6 0 -17 9 -25 20 -8 11 -18 20 -23 20 -5 0 -22 14 -37 30
-15 17 -33 30 -39 30 -6 0 -11 5 -11 10 0 6 -7 10 -15 10 -8 0 -15 5 -15 10 0
6 -6 10 -14 10 -8 0 -16 4 -18 8 -9 22 -199 127 -293 162 -11 4 -31 12 -45 18
-86 37 -281 78 -440 92 -128 11 -130 11 -250 -1z m-830 -509 c0 -5 7 -10 15
-10 8 0 17 -11 21 -25 6 -24 7 -24 20 -8 8 11 13 13 14 6 0 -7 12 -13 28 -13
18 0 35 -10 51 -30 14 -18 33 -30 47 -30 13 0 24 -6 24 -13 0 -24 40 -58 61
-52 12 4 19 2 19 -6 0 -15 81 -89 98 -89 6 0 12 -9 12 -21 0 -24 22 -49 44
-49 9 0 16 -4 16 -10 0 -5 -4 -10 -10 -10 -5 0 -10 -4 -10 -10 0 -5 9 -10 20
-10 12 0 20 -7 20 -16 0 -16 23 -44 36 -44 12 0 44 -43 51 -69 3 -14 15 -34
26 -43 10 -9 16 -22 12 -28 -6 -10 16 -40 30 -40 15 0 35 -31 35 -54 0 -14 6
-26 13 -26 8 0 7 -4 -3 -10 -12 -8 -10 -10 8 -10 13 0 43 14 67 30 24 17 48
30 54 30 6 0 11 5 11 10 0 6 6 10 13 10 7 0 22 8 33 18 10 9 31 23 47 31 15 8
27 18 27 23 0 4 9 8 20 8 11 0 20 5 20 10 0 6 7 10 15 10 8 0 15 5 15 10 0 6
9 10 20 10 11 0 20 4 20 9 0 14 231 126 310 150 41 13 86 27 100 33 36 15 189
23 170 9 -13 -10 -13 -12 0 -22 11 -8 12 -12 3 -16 -7 -2 -13 -13 -13 -24 0
-11 -7 -19 -16 -19 -23 0 -46 -28 -46 -56 0 -13 -4 -24 -9 -24 -4 0 -11 -9
-14 -20 -3 -11 -11 -20 -16 -20 -15 0 -39 -27 -39 -44 0 -8 -10 -16 -22 -18
-17 -2 -24 -11 -26 -31 -4 -30 -50 -87 -71 -87 -14 0 -14 -17 0 -22 6 -2 -7
-16 -30 -31 -22 -15 -41 -29 -41 -31 0 -6 22 -27 65 -61 21 -16 53 -43 70 -60
18 -16 61 -55 95 -85 97 -85 250 -244 250 -260 0 -6 9 -21 20 -33 29 -31 61
-83 99 -158 18 -35 37 -72 42 -81 5 -10 9 -37 9 -60 0 -33 -3 -39 -12 -30 -15
15 -50 16 -65 1 -11 -11 -125 -7 -177 6 -19 5 -31 4 -36 -6 -7 -10 -14 -11
-32 -2 -41 18 -94 33 -121 33 -14 0 -29 5 -32 10 -3 5 -16 10 -27 10 -11 0
-33 13 -48 28 -40 43 -80 47 -137 15 -26 -14 -52 -30 -57 -35 -6 -5 -47 -31
-91 -58 -44 -27 -85 -54 -92 -60 -7 -5 -19 -10 -28 -10 -8 0 -15 -4 -15 -10 0
-24 -76 8 -124 52 -11 10 -25 18 -32 18 -7 0 -14 3 -16 8 -1 4 -30 27 -63 52
-33 24 -64 48 -70 52 -5 5 -32 25 -60 46 -27 20 -51 40 -53 45 -2 4 -8 7 -13
7 -5 0 -25 16 -45 35 -19 19 -38 35 -43 35 -4 0 -29 20 -54 45 -26 25 -50 45
-53 45 -3 0 -36 33 -74 73 -112 116 -130 136 -130 144 0 4 -14 22 -30 40 -17
18 -30 34 -30 37 0 3 -15 29 -33 58 -18 29 -43 76 -56 103 -13 28 -27 58 -32
67 -5 10 -9 29 -9 43 0 14 -4 25 -10 25 -5 0 -10 18 -10 40 0 22 -4 40 -10 40
-6 0 -10 73 -10 199 0 123 4 202 10 206 6 3 10 21 10 40 0 19 5 37 10 40 6 3
10 19 10 36 0 16 5 29 10 29 6 0 10 9 10 20 0 11 5 20 10 20 6 0 10 -4 10 -10z"/>
<path d="M2020 2069 c0 -5 5 -7 10 -4 6 3 10 8 10 11 0 2 -4 4 -10 4 -5 0 -10
-5 -10 -11z"/>
</g>
</svg>
